<svg viewBox="0 0 24 24" xmlns="http://www.w3.org/2000/svg">
  <path d="M23.5 12.3c0-.8-.1-1.6-.2-2.4H12v4.5h6.5c-.3 1.5-1.1 2.8-2.4 3.7v3h3.9c2.3-2.1 3.5-5.2 3.5-8.8Z" fill="#4285F4"/>
  <path d="M12 24c3.2 0 5.9-1.1 7.9-2.9l-3.9-3c-1.1.7-2.4 1.2-4 1.2-3.1 0-5.7-2.1-6.6-4.9H1.4v3.1C3.4 21.3 7.4 24 12 24Z" fill="#34A853"/>
  <path d="M5.4 14.4c-.2-.7-.4-1.5-.4-2.4s.1-1.6.4-2.4V6.5H1.4A12 12 0 0 0 0 12c0 1.9.5 3.8 1.4 5.5l4-3.1Z" fill="#FBBC05"/>
  <path d="M12 4.8c1.7 0 3.3.6 4.5 1.8l3.4-3.4C17.9 1.2 15.2 0 12 0 7.4 0 3.4 2.7 1.4 6.5l4 3.1c.9-2.8 3.5-4.8 6.6-4.8Z" fill="#EA4335"/>
</svg>
