<svg viewBox="0 0 24 24" fill="none" xmlns="http://www.w3.org/2000/svg">
  <path d="M7 4h10v5a5 5 0 0 1-10 0V4Z" stroke="#2f9e44" stroke-width="2" stroke-linejoin="round"/>
  <path d="M7 5H4.5A1.5 1.5 0 0 0 3 6.5 4 4 0 0 0 7 10" stroke="#2f9e44" stroke-width="2" stroke-linecap="round"/>
  <path d="M17 5h2.5A1.5 1.5 0 0 1 21 6.5 4 4 0 0 1 17 10" stroke="#2f9e44" stroke-width="2" stroke-linecap="round"/>
  <path d="M12 14v3M9 20h6M9.5 20c0-1.8.7-2.5 2.5-2.5s2.5.7 2.5 2.5" stroke="#2f9e44" stroke-width="2" stroke-linecap="round" stroke-linejoin="round"/>
</svg>
