<svg viewBox="0 0 24 24" fill="none" xmlns="http://www.w3.org/2000/svg">
  <path d="M4.5 9.5c1 0 1.8-1 1.8-2.2S5.5 5 4.5 5s-1.8 1.1-1.8 2.3 .8 2.2 1.8 2.2Z" fill="#2f9e44"/>
  <path d="M9.2 8c1 0 1.8-1 1.8-2.3S10.2 3.5 9.2 3.5s-1.8 1-1.8 2.2S8.2 8 9.2 8Z" fill="#2f9e44"/>
  <path d="M14.8 8c1 0 1.8-1 1.8-2.3s-.8-2.2-1.8-2.2-1.8 1-1.8 2.2S13.8 8 14.8 8Z" fill="#2f9e44"/>
  <path d="M19.5 9.5c1 0 1.8-1 1.8-2.2S20.5 5 19.5 5s-1.8 1.1-1.8 2.3.8 2.2 1.8 2.2Z" fill="#2f9e44"/>
  <path d="M12 11c-2.6 0-5 2.3-5.6 4.8-.4 1.7.9 3.2 2.6 2.8.9-.2 1.9-.4 3-.4s2.1.2 3 .4c1.7.4 3-1.1 2.6-2.8C17 13.3 14.6 11 12 11Z" fill="#2f9e44"/>
</svg>
