<svg width="200" height="200" viewBox="0 0 200 200" fill="none" xmlns="http://www.w3.org/2000/svg">
  <rect width="200" height="200" fill="#ffffff"/>
  <g fill="#1a2221">
    <rect x="10" y="10" width="50" height="50"/>
    <rect x="22" y="22" width="26" height="26" fill="#ffffff"/>
    <rect x="30" y="30" width="10" height="10"/>
    <rect x="140" y="10" width="50" height="50"/>
    <rect x="152" y="22" width="26" height="26" fill="#ffffff"/>
    <rect x="160" y="30" width="10" height="10"/>
    <rect x="10" y="140" width="50" height="50"/>
    <rect x="22" y="152" width="26" height="26" fill="#ffffff"/>
    <rect x="30" y="160" width="10" height="10"/>

    <rect x="70" y="10" width="8" height="8"/>
    <rect x="86" y="10" width="8" height="8"/>
    <rect x="102" y="10" width="8" height="8"/>
    <rect x="70" y="26" width="8" height="8"/>
    <rect x="94" y="26" width="8" height="8"/>
    <rect x="118" y="26" width="8" height="8"/>
    <rect x="78" y="42" width="8" height="8"/>
    <rect x="102" y="42" width="8" height="8"/>
    <rect x="70" y="58" width="8" height="8"/>
    <rect x="110" y="58" width="8" height="8"/>

    <rect x="70" y="70" width="8" height="8"/>
    <rect x="86" y="70" width="8" height="8"/>
    <rect x="118" y="70" width="8" height="8"/>
    <rect x="94" y="86" width="8" height="8"/>
    <rect x="110" y="86" width="8" height="8"/>
    <rect x="134" y="86" width="8" height="8"/>
    <rect x="70" y="94" width="8" height="8"/>
    <rect x="126" y="102" width="8" height="8"/>
    <rect x="102" y="110" width="8" height="8"/>
    <rect x="86" y="118" width="8" height="8"/>
    <rect x="118" y="118" width="8" height="8"/>

    <rect x="70" y="126" width="8" height="8"/>
    <rect x="94" y="134" width="8" height="8"/>
    <rect x="70" y="150" width="8" height="8"/>
    <rect x="86" y="158" width="8" height="8"/>
    <rect x="102" y="150" width="8" height="8"/>
    <rect x="118" y="166" width="8" height="8"/>
    <rect x="134" y="150" width="8" height="8"/>
    <rect x="150" y="134" width="8" height="8"/>
    <rect x="166" y="118" width="8" height="8"/>
    <rect x="150" y="102" width="8" height="8"/>
    <rect x="166" y="86" width="8" height="8"/>
    <rect x="150" y="70" width="8" height="8"/>
    <rect x="134" y="118" width="8" height="8"/>
    <rect x="118" y="150" width="8" height="8"/>
    <rect x="150" y="166" width="8" height="8"/>
    <rect x="166" y="150" width="8" height="8"/>
    <rect x="102" y="166" width="8" height="8"/>
    <rect x="134" y="166" width="8" height="8"/>
    <rect x="150" y="182" width="8" height="8"/>
    <rect x="118" y="182" width="8" height="8"/>
    <rect x="86" y="182" width="8" height="8"/>
    <rect x="70" y="182" width="8" height="8"/>
    <rect x="102" y="134" width="8" height="8"/>
    <rect x="126" y="70" width="8" height="8"/>
    <rect x="142" y="70" width="8" height="8"/>
    <rect x="166" y="70" width="8" height="8"/>
    <rect x="182" y="86" width="8" height="8"/>
    <rect x="182" y="118" width="8" height="8"/>
    <rect x="182" y="150" width="8" height="8"/>
    <rect x="182" y="102" width="8" height="8"/>
    <rect x="182" y="134" width="8" height="8"/>
    <rect x="182" y="166" width="8" height="8"/>
  </g>
</svg>
